# File created by Blade
# Date/Time:  Wed Jan 21 16:14:13 2015
# Frame Rate: 120.000 fps
#------------------------------------------------------
:FULLY-SPECIFIED
:DEGREES
90
root 18.425937 35.631088 -20.368891 -172.132098 -1.386763 -179.189555
Spine -21.222864 0.715866 0.362911
Head 13.401922 -0.781902 -1.605293
LeftShoulder -5.231805 -53.189082 33.877918
LeftArm 28.552963 -4.805512 1.745250
LeftForeArm -8.750239 -0.000000 -1.809786
LeftHand -7.422341 0.000000 -2.361268
LeftHandThumb1 -26.253704 0.000000 33.147579
RightShoulder -5.961884 10.445363 -28.755948
RightArm 18.204442 41.024001 -5.656211
RightForeArm -36.389414 -0.000000 5.593762
RightHand -1.843618 -0.000000 5.383468
RightHandThumb1 -24.326973 -0.000000 -32.862282
LeftUpLeg 0.222286 8.307987 -0.322931
LeftLeg -5.171153 -0.000000 0.000000
LeftFoot -20.548528 26.229154 -12.734813
LeftToeBase 25.345491 -0.000000 -0.000000
RightUpLeg -1.231691 -5.216983 1.219647
RightLeg -2.054612 -0.000000 0.000000
RightFoot -22.088516 -28.010054 15.638708
RightToeBase 23.261981 -0.000000 -0.000000
91
root 18.423291 35.632516 -20.362190 -172.045106 -1.363197 -179.188024
Spine -21.380916 0.765221 0.386234
Head 13.421574 -0.800861 -1.705253
LeftShoulder -5.176283 -53.431353 34.208014
LeftArm 29.643283 -5.279588 1.714107
LeftForeArm -8.772109 -0.000000 -1.785998
LeftHand -7.252768 -0.000000 -2.180317
LeftHandThumb1 -26.253704 0.000000 33.147579
RightShoulder -5.869995 10.730206 -29.253090
RightArm 18.874108 41.034323 -6.027212
RightForeArm -36.273800 -0.000000 5.716086
RightHand -2.000581 -0.000000 5.318287
RightHandThumb1 -24.326973 -0.000000 -32.862282
LeftUpLeg 0.119016 8.329174 -0.342058
LeftLeg -5.161116 -0.000000 0.000000
LeftFoot -20.538245 26.238679 -12.747889
LeftToeBase 25.010050 -0.000000 -0.000000
RightUpLeg -1.343246 -5.160433 1.220902
RightLeg -2.031983 -0.000000 0.000000
RightFoot -22.105781 -28.034575 15.651234
RightToeBase 23.319686 -0.000000 -0.000000
92
root 18.420439 35.634185 -20.355427 -171.963608 -1.316610 -179.186662
Spine -21.529330 0.817389 0.406873
Head 13.449119 -0.780503 -1.781992
LeftShoulder -5.244546 -53.717106 34.647115
LeftArm 30.751181 -5.767755 1.552303
LeftForeArm -8.691415 -0.000000 -1.702157
LeftHand -7.086719 -0.000000 -1.899914
LeftHandThumb1 -26.253704 0.000000 33.147579
RightShoulder -5.825745 11.113158 -29.741987
RightArm 19.719284 41.154340 -6.204005
RightForeArm -36.347754 0.000000 5.875661
RightHand -2.055088 -0.000000 5.053864
RightHandThumb1 -24.326973 -0.000000 -32.862282
LeftUpLeg 0.024313 8.351288 -0.364253
LeftLeg -5.142141 -0.000000 0.000000
LeftFoot -20.526989 26.250746 -12.722852
LeftToeBase 25.287094 -0.000000 -0.000000
RightUpLeg -1.455856 -5.113028 1.219601
RightLeg -2.003025 -0.000000 0.000000
RightFoot -22.101616 -28.031270 15.672587
RightToeBase 23.285776 -0.000000 -0.000000
93
root 18.417914 35.636114 -20.345804 -171.854475 -1.266729 -179.182899
Spine -21.704100 0.870558 0.426478
Head 13.432153 -0.813267 -1.851667
LeftShoulder -5.286704 -54.003633 35.067278
LeftArm 31.845251 -6.223535 1.425176
LeftForeArm -8.945045 -0.000000 -1.659735
LeftHand -6.735167 0.000000 -1.772310
LeftHandThumb1 -26.253704 0.000000 33.147579
RightShoulder -5.745953 11.531414 -30.224702
RightArm 20.479418 41.212237 -6.420577
RightForeArm -36.411953 -0.000000 6.083198
RightHand -2.028752 0.000000 4.939145
RightHandThumb1 -24.326973 -0.000000 -32.862282
LeftUpLeg -0.105132 8.387429 -0.388422
LeftLeg -5.123789 -0.000000 0.000000
LeftFoot -20.518446 26.258398 -12.718734
LeftToeBase 25.300287 -0.000000 -0.000000
RightUpLeg -1.602054 -5.029147 1.223030
RightLeg -1.968433 -0.000000 0.000000
RightFoot -22.108739 -28.030749 15.781891
RightToeBase 23.142325 -0.000000 -0.000000
94
root 18.414441 35.637721 -20.336890 -171.766417 -1.233791 -179.179417
Spine -21.856834 0.932667 0.441524
Head 13.425943 -0.845074 -1.916290
LeftShoulder -5.298811 -54.293190 35.461704
LeftArm 32.902305 -6.562479 1.315554
LeftForeArm -9.131367 -0.000000 -1.573355
LeftHand -6.319566 -0.000000 -1.657525
LeftHandThumb1 -26.253704 0.000000 33.147579
RightShoulder -5.668010 11.840518 -30.664576
RightArm 21.212888 41.319298 -6.692829
RightForeArm -36.591275 -0.000000 6.306620
RightHand -2.098172 -0.000000 4.530684
RightHandThumb1 -24.326973 -0.000000 -32.862282
LeftUpLeg -0.221374 8.422078 -0.409028
LeftLeg -5.091705 -0.000000 0.000000
LeftFoot -20.520221 26.253928 -12.708229
LeftToeBase 25.298924 -0.000000 -0.000000
RightUpLeg -1.721456 -4.989558 1.222167
RightLeg -1.943076 -0.000000 0.000000
RightFoot -22.093499 -28.054408 15.703665
RightToeBase 23.280459 -0.000000 -0.000000
95
root 18.411143 35.639552 -20.328507 -171.694291 -1.198493 -179.181446
Spine -21.990507 0.989519 0.455683
Head 13.445908 -0.856699 -1.963680
LeftShoulder -5.319650 -54.588662 35.857992
LeftArm 33.943675 -7.015217 1.085405
LeftForeArm -9.264873 -0.000000 -1.485767
LeftHand -5.741556 -0.000000 -1.592134
LeftHandThumb1 -26.253704 0.000000 33.147579
RightShoulder -5.576916 12.222461 -31.093663
RightArm 21.938192 41.359190 -6.992169
RightForeArm -36.680557 -0.000000 6.511562
RightHand -2.082002 -0.000000 4.248803
RightHandThumb1 -24.326973 -0.000000 -32.862282
LeftUpLeg -0.310818 8.441874 -0.431940
LeftLeg -5.076824 -0.000000 0.000000
LeftFoot -20.518816 26.247930 -12.733202
LeftToeBase 25.255432 -0.000000 -0.000000
RightUpLeg -1.817334 -4.958978 1.216510
RightLeg -1.929966 -0.000000 0.000000
RightFoot -22.084318 -28.039331 15.717407
RightToeBase 23.295016 -0.000000 -0.000000
96
root 18.407130 35.641634 -20.319656 -171.608801 -1.174646 -179.178463
Spine -22.133199 1.051415 0.472887
Head 13.522651 -0.890147 -2.042164
LeftShoulder -5.339881 -54.896783 36.231972
LeftArm 35.004454 -7.348328 0.911725
LeftForeArm -9.609189 0.000000 -1.390437
LeftHand -5.383010 0.000000 -1.425525
LeftHandThumb1 -26.253704 0.000000 33.147579
RightShoulder -5.478797 12.647579 -31.495242
RightArm 22.647352 41.377839 -7.333707
RightForeArm -36.673879 -0.000000 6.727195
RightHand -2.023097 -0.000000 4.002443
RightHandThumb1 -24.326973 -0.000000 -32.862282
LeftUpLeg -0.418131 8.448496 -0.453200
LeftLeg -5.063771 -0.000000 0.000000
LeftFoot -20.507897 26.282759 -12.736403
LeftToeBase 24.987310 -0.000000 -0.000000
RightUpLeg -1.927300 -4.939643 1.218732
RightLeg -1.917271 -0.000000 0.000000
RightFoot -22.062205 -28.032629 15.740340
RightToeBase 23.264409 -0.000000 -0.000000
